<?xml version="1.0" encoding="utf-8"?>
<!-- Generator: Adobe Illustrator 23.0.1, SVG Export Plug-In . SVG Version: 6.00 Build 0)  -->
<svg version="1.1" id="Layer_1" xmlns="http://www.w3.org/2000/svg" xmlns:xlink="http://www.w3.org/1999/xlink" x="0px" y="0px"
	 viewBox="0 0 450 450" style="enable-background:new 0 0 450 450;" xml:space="preserve">
<style type="text/css">
	.st0{fill:#FFFFFF;}
	.st1{fill:#20A0E1;}
	.st2{fill:url(#SVGID_1_);}
	.st3{fill-rule:evenodd;clip-rule:evenodd;fill:#CCD8E6;}
	.st4{fill-rule:evenodd;clip-rule:evenodd;fill:#FEFEFE;}
	.st5{fill-rule:evenodd;clip-rule:evenodd;fill:#ABBDD5;}
	.st6{fill:#7B519D;}
	.st7{fill:url(#SVGID_2_);}
	.st8{fill-rule:evenodd;clip-rule:evenodd;fill:#FFFFFF;}
	.st9{fill-rule:evenodd;clip-rule:evenodd;fill:#FFFFFE;}
	.st10{fill:url(#shape_3_3_);}
	.st11{fill:url(#SVGID_3_);}
</style>
<g>
	<g id="shape_4_1_">
		<g id="shape_4_3_">
			
				<image style="overflow:visible;opacity:6.000000e-02;" width="1835" height="1841" xlink:href="AB1C9BD6.png"  transform="matrix(0.24 0 0 0.24 5.42 9.6416)">
			</image>
			<g>
				
					<image style="overflow:visible;opacity:0.15;" width="1596" height="1603" xlink:href="AB1C9BDA.png"  transform="matrix(0.24 0 0 0.24 33.5 36.6816)">
				</image>
				<g>
					<path class="st0" d="M42.5,408.3l25.8-94.1C52.4,286.6,44,255.4,44,223.3c0-100.2,81.6-181.7,181.7-181.7
						c48.6,0,94.2,18.9,128.6,53.3c34.3,34.3,53.2,80,53.2,128.5c0,100.2-81.6,181.7-181.7,181.7c0,0,0,0,0,0h-0.1
						c-30.4,0-60.3-7.6-86.8-22.1L42.5,408.3z M143.3,350.2l5.5,3.3c23.2,13.8,49.8,21,76.9,21.1h0.1c83.3,0,151-67.7,151-151
						c0-40.4-15.7-78.3-44.2-106.8c-28.5-28.5-66.4-44.3-106.8-44.3c-83.3,0-151.1,67.7-151.1,151c0,28.5,8,56.3,23.1,80.4l3.6,5.7
						l-15.3,55.7L143.3,350.2z"/>
				</g>
			</g>
		</g>
	</g>
	<linearGradient id="shape_3_3_" gradientUnits="userSpaceOnUse" x1="224.9989" y1="401.9745" x2="224.9989" y2="48.0302">
		<stop  offset="0" style="stop-color:#20B038"/>
		<stop  offset="1" style="stop-color:#60D66A"/>
	</linearGradient>
	<path id="shape_3_1_" class="st10" d="M48.8,402l24.9-90.9c-15.4-26.6-23.4-56.8-23.4-87.7C50.3,126.7,129,48,225.7,48
		c46.9,0,91,18.3,124.1,51.4c33.1,33.2,51.4,77.2,51.3,124.1c0,96.7-78.7,175.4-175.4,175.4c0,0,0,0,0,0h-0.1
		c-29.4,0-58.2-7.4-83.8-21.3L48.8,402z"/>
	<g id="shape_2_1_">
		<g id="shape_2_3_">
			
				<image style="overflow:visible;opacity:4.000000e-02;" width="1621" height="1628" xlink:href="AB1C9BDD.png"  transform="matrix(0.24 0 0 0.24 30.5 30.6816)">
			</image>
			<g>
				<g>
					<linearGradient id="SVGID_1_" gradientUnits="userSpaceOnUse" x1="225" y1="408.3184" x2="225" y2="41.6816">
						<stop  offset="0" style="stop-color:#F9F9F9"/>
						<stop  offset="1" style="stop-color:#FFFFFF"/>
					</linearGradient>
					<path class="st2" d="M42.5,408.3l25.8-94.1C52.4,286.6,44,255.4,44,223.3c0-100.2,81.6-181.7,181.7-181.7
						c48.6,0,94.2,18.9,128.6,53.3c34.3,34.3,53.2,80,53.2,128.5c0,100.2-81.6,181.7-181.7,181.7c0,0,0,0,0,0h-0.1
						c-30.4,0-60.3-7.6-86.8-22.1L42.5,408.3z M143.3,350.2l5.5,3.3c23.2,13.8,49.8,21,76.9,21.1h0.1c83.3,0,151-67.7,151-151
						c0-40.4-15.7-78.3-44.2-106.8c-28.5-28.5-66.4-44.3-106.8-44.3c-83.3,0-151.1,67.7-151.1,151c0,28.5,8,56.3,23.1,80.4l3.6,5.7
						l-15.3,55.7L143.3,350.2z"/>
				</g>
			</g>
		</g>
	</g>
	<g id="shape_1_1_">
		<g id="shape_1_3_">
			
				<image style="overflow:visible;opacity:6.000000e-02;" width="870" height="814" xlink:href="AB1C9BDE.png"  transform="matrix(0.24 0 0 0.24 121.4177 129.4493)">
			</image>
			<g>
				<path class="st8" d="M180.3,147.4c-3.4-7.6-7-7.7-10.2-7.8c-2.6-0.1-5.7-0.1-8.7-0.1c-3,0-7.9,1.1-12.1,5.7
					c-4.2,4.5-15.9,15.5-15.9,37.9c0,22.3,16.3,43.9,18.5,47c2.3,3,31.4,50.3,77.6,68.5c38.4,15.1,46.2,12.1,54.5,11.4
					c8.3-0.8,26.9-11,30.7-21.6c3.8-10.6,3.8-19.7,2.6-21.6c-1.1-1.9-4.2-3-8.7-5.3c-4.5-2.3-26.9-13.3-31-14.8
					c-4.2-1.5-7.2-2.3-10.2,2.3c-3,4.5-11.7,14.8-14.4,17.8c-2.6,3-5.3,3.4-9.8,1.1c-4.5-2.3-19.2-7.1-36.5-22.5
					c-13.5-12-22.6-26.9-25.3-31.4c-2.6-4.5-0.3-7,2-9.3c2-2,4.5-5.3,6.8-8c2.3-2.7,3-4.5,4.5-7.6c1.5-3,0.8-5.7-0.4-8
					C193.2,178.8,184.4,156.4,180.3,147.4z"/>
			</g>
		</g>
	</g>
</g>
</svg>
