<?xml version="1.0" encoding="utf-8"?>
<!-- Generator: Adobe Illustrator 23.0.1, SVG Export Plug-In . SVG Version: 6.00 Build 0)  -->
<svg version="1.1" id="Layer_1" xmlns="http://www.w3.org/2000/svg" xmlns:xlink="http://www.w3.org/1999/xlink" x="0px" y="0px"
	 viewBox="0 0 450 450" style="enable-background:new 0 0 450 450;" xml:space="preserve">
<style type="text/css">
	.st0{fill:#FFFFFF;}
	.st1{fill:#20A0E1;}
	.st2{fill:url(#SVGID_1_);}
	.st3{fill-rule:evenodd;clip-rule:evenodd;fill:#CCD8E6;}
	.st4{fill-rule:evenodd;clip-rule:evenodd;fill:#FEFEFE;}
	.st5{fill-rule:evenodd;clip-rule:evenodd;fill:#ABBDD5;}
	.st6{fill:#7B519D;}
	.st7{fill:url(#SVGID_2_);}
	.st8{fill-rule:evenodd;clip-rule:evenodd;fill:#FFFFFF;}
	.st9{fill-rule:evenodd;clip-rule:evenodd;fill:#FFFFFE;}
	.st10{fill:url(#shape_3_3_);}
	.st11{fill:url(#SVGID_3_);}
</style>
<g>
	<g id="shape_4">
		<g id="shape_4_2_">
			
				<image style="overflow:visible;opacity:6.000000e-02;" width="1835" height="1841" xlink:href="E6EF74F7.png"  transform="matrix(0.24 0 0 0.24 5.42 9.6416)">
			</image>
			<g>
				
					<image style="overflow:visible;opacity:0.15;" width="1596" height="1603" xlink:href="E6EF74F5.png"  transform="matrix(0.24 0 0 0.24 33.5 36.6816)">
				</image>
				<g>
					<path class="st0" d="M42.5,408.3l25.8-94.1C52.4,286.6,44,255.4,44,223.3c0-100.2,81.6-181.7,181.7-181.7
						c48.6,0,94.2,18.9,128.6,53.3c34.3,34.3,53.2,80,53.2,128.5c0,100.2-81.6,181.7-181.7,181.7c0,0,0,0,0,0h-0.1
						c-30.4,0-60.3-7.6-86.8-22.1L42.5,408.3z M143.3,350.2l5.5,3.3c23.2,13.8,49.8,21,76.9,21.1h0.1c83.3,0,151-67.7,151-151
						c0-40.4-15.7-78.3-44.2-106.8c-28.5-28.5-66.4-44.3-106.8-44.3c-83.3,0-151.1,67.7-151.1,151c0,28.5,8,56.3,23.1,80.4l3.6,5.7
						l-15.3,55.7L143.3,350.2z"/>
				</g>
			</g>
		</g>
	</g>
	<path id="shape_3" class="st1" d="M48.8,402l24.9-90.9c-15.4-26.6-23.4-56.8-23.4-87.7C50.3,126.7,129,48,225.7,48
		c46.9,0,91,18.3,124.1,51.4c33.1,33.2,51.4,77.2,51.3,124.1c0,96.7-78.7,175.4-175.4,175.4c0,0,0,0,0,0h-0.1
		c-29.4,0-58.2-7.4-83.8-21.3L48.8,402z"/>
	<g id="shape_2">
		<g id="shape_2_2_">
			
				<image style="overflow:visible;opacity:4.000000e-02;" width="1621" height="1628" xlink:href="E6EF74FB.png"  transform="matrix(0.24 0 0 0.24 30.5 30.6816)">
			</image>
			<g>
				<g>
					<linearGradient id="SVGID_1_" gradientUnits="userSpaceOnUse" x1="225" y1="408.3184" x2="225" y2="41.6816">
						<stop  offset="0" style="stop-color:#F9F9F9"/>
						<stop  offset="1" style="stop-color:#FFFFFF"/>
					</linearGradient>
					<path class="st2" d="M42.5,408.3l25.8-94.1C52.4,286.6,44,255.4,44,223.3c0-100.2,81.6-181.7,181.7-181.7
						c48.6,0,94.2,18.9,128.6,53.3c34.3,34.3,53.2,80,53.2,128.5c0,100.2-81.6,181.7-181.7,181.7c0,0,0,0,0,0h-0.1
						c-30.4,0-60.3-7.6-86.8-22.1L42.5,408.3z M143.3,350.2l5.5,3.3c23.2,13.8,49.8,21,76.9,21.1h0.1c83.3,0,151-67.7,151-151
						c0-40.4-15.7-78.3-44.2-106.8c-28.5-28.5-66.4-44.3-106.8-44.3c-83.3,0-151.1,67.7-151.1,151c0,28.5,8,56.3,23.1,80.4l3.6,5.7
						l-15.3,55.7L143.3,350.2z"/>
				</g>
			</g>
		</g>
	</g>
	<g id="_445047880">
		<g>
			<path class="st3" d="M276.2,184c1.5-3,4.5-3,4.5-7.6c-6.1,0-10.6,4.5-13.6,6.1L165.6,246l19.7,62.1c3-3,3-6.1,3-12.1
				c0-3,1.5-9.1,1.5-12.1v-10.6c1.5-1.5,1.5-3,1.5-6.1c0-1.5,0-3,0-4.5c1.5-3,3-1.5,4.5-4.5C218.6,233.9,250.4,206.7,276.2,184z"/>
			<path class="st4" d="M115.6,227.9l50,18.2l106-66.6c3-1.5,6.1-3,9.1-3c0,4.5-6.1,9.1-9.1,12.1c-22.7,19.7-60.6,48.5-80.3,71.2
				l18.2,13.6c3,0,10.6,7.6,12.1,9.1c3,1.5,15.1,10.6,16.7,13.6c3,0,3,1.5,4.5,3l15.1,10.6c6.1,4.5,12.1,12.1,22.7,4.5L314,162.7
				c4.5-25.7-7.6-21.2-24.2-15.1l-169.6,68.2C114.1,218.8,108.1,226.4,115.6,227.9z"/>
			<path class="st5" d="M185.3,308.1l1.5,1.5c3,0,6.1-1.5,9.1-4.5l25.7-22.7c-1.5-1.5-9.1-9.1-12.1-9.1l-18.2-13.6L185.3,308.1z"/>
		</g>
	</g>
</g>
</svg>
