<?xml version="1.0" encoding="utf-8"?>
<!-- Generator: Adobe Illustrator 23.0.1, SVG Export Plug-In . SVG Version: 6.00 Build 0)  -->
<svg version="1.1" id="Layer_1" xmlns="http://www.w3.org/2000/svg" xmlns:xlink="http://www.w3.org/1999/xlink" x="0px" y="0px"
	 viewBox="0 0 145 140" style="enable-background:new 0 0 145 140;" xml:space="preserve">
<style type="text/css">
	.st0{fill:#0B7A8C;}
	.st1{fill:#FFCD10;}
	.st2{fill:#231F20;}
	.st3{fill:#DDF0F4;}
	.st4{fill:#959595;}
	.st5{fill:#FFEF00;}
	.st6{fill:#FFFFFF;}
	.st7{fill-rule:evenodd;clip-rule:evenodd;fill:#FFFFFF;}
	.st8{fill:none;}
</style>
<g>
	<path class="st0" d="M77.4,40.5l8.6-6.2c0,0-14.6-24.4-17.8-28.1C65.1,2.4,53.8,0,53.8,0s38.7,0,44.7,0c4.4,0.8,6.9,5.8,6.9,5.8
		l8.1,12.8l8.6-5.1l-12.8,27H77.4z M71.9,20.2c0,0-4.6-10.2-12.6-14.5c-8.8-4.7-15.9-3.6-18.6,1.5S21,40.5,21,40.5H59L71.9,20.2z
		 M24.2,115.1c0.5,10,5.2,15.5,10.9,15.1c5.7-0.4,38.6-0.3,38.6-0.3V97.3L30,96.8C30,96.8,23.7,105.9,24.2,115.1z M130.1,98
		c-4.9,0.7-33.3,0.4-33.3,0.4L96,87.8l-16.8,27.1L95.5,140l0.2-10l15.1-0.2c0,0,4.9,0.9,8.6-2.9c3.2-5.1,23.5-38,23.5-38
		S134.9,97.3,130.1,98z M20.9,106.6c1.9-4.6,17.2-38.8,17.2-38.8l9.3,5.2L33.8,44.1l-29.9,0l8.3,5.6l-9.9,24c0,0-3.2,7.7-1.5,12.1
		c2.6,5.4,20.8,36.4,20.8,36.4S18,113.9,20.9,106.6z M116.7,94.9c0,0,11.8,0.7,18.4-4.3c8.6-5,11.4-11,8.5-15.9
		c-2.9-4.9-18-29.8-18-29.8l-19.9,27.2L116.7,94.9z"/>
	<g>
		<g>
			<g>
				<path class="st1" d="M35.3,93.8h77.8c6.7,0,12.1-5.5,12.1-12.1V56.6c0-6.7-5.5-12.1-12.1-12.1H35.3c-6.7,0-12.1,5.5-12.1,12.1
					v25.1C23.2,88.3,28.6,93.8,35.3,93.8z"/>
			</g>
			<g>
				<path class="st2" d="M113.1,94.8H35.3c-7.2,0-13.1-5.9-13.1-13.1V56.6c0-7.2,5.9-13.1,13.1-13.1h77.8c7.2,0,13.1,5.9,13.1,13.1
					v25.1C126.2,88.9,120.3,94.8,113.1,94.8z M35.3,45.5c-6.1,0-11.1,5-11.1,11.1v25.1c0,6.1,5,11.1,11.1,11.1h77.8
					c6.1,0,11.1-5,11.1-11.1V56.6c0-6.1-5-11.1-11.1-11.1H35.3z"/>
			</g>
		</g>
		<g>
			<path class="st2" d="M57.2,57.5h-7.5v1.8h6.8v3.3h-6.8v2.1h7.7v3.6h-12V54h11.8V57.5z"/>
			<path class="st2" d="M72.3,62.4c0,4.5-2.4,6.1-6.5,6.1c-4.4,0-6.4-2.1-6.4-5.8V54h4.3v8.7c0,1.5,0.6,2.2,2.2,2.2
				c1.4,0,2-0.7,2-2.2V54h4.3V62.4z"/>
			<path class="st2" d="M82.2,54c2.2,0,5.1,0.9,5.1,4.2c0,1.5-0.8,2.9-2.1,3.5c1.4,0.4,2,2.3,2.1,3.5l0.1,1.5c0,0.5,0.1,1.1,0.4,1.5
				h-4.3c-0.2-0.4-0.2-0.9-0.3-1.3l-0.1-0.8c-0.1-1.6-0.4-2.9-2.4-2.9h-1.8v5h-4.3V54H82.2z M78.9,60.2h2.4c1,0,1.8-0.4,1.8-1.5
				c0-1-0.7-1.4-2-1.4h-2.2V60.2z"/>
			<path class="st2" d="M103.3,61.1c0,4.4-2.9,7.4-7.1,7.4c-4.3,0-7.3-3-7.3-7.5c0-4.5,2.9-7.4,7.3-7.4
				C100.5,53.6,103.3,56.6,103.3,61.1z M93.4,61c0,2.5,1,4,2.8,4c1.8,0,2.7-1.4,2.7-4.1c0-2.4-1-3.8-2.7-3.8
				C94.4,57.1,93.4,58.6,93.4,61z"/>
			<path class="st2" d="M40.2,84.4c-2.8,0-4.6-2-4.6-5c0-2.7,1.8-4.9,4.6-4.9c2.3,0,3.9,1.4,4.1,3.4h-2c-0.2-1-1-1.6-2.1-1.6
				c-1.8,0-2.5,1.6-2.5,3.2c0,2,1,3.2,2.5,3.2c1.2,0,2-0.7,2.2-2.1h2.1C44.3,82.8,42.8,84.4,40.2,84.4z"/>
			<path class="st2" d="M54.8,79.4c0,2.9-1.9,4.9-4.7,4.9c-2.8,0-4.7-2-4.7-4.9c0-3,1.9-5,4.7-5C52.9,74.4,54.8,76.4,54.8,79.4z
				 M47.5,79.4c0,2,1,3.3,2.6,3.3c1.6,0,2.5-1.2,2.5-3.3c0-2-1-3.2-2.6-3.2C48.5,76.1,47.5,77.4,47.5,79.4z"/>
			<path class="st2" d="M56.2,74.7h2.1l3.9,6.3v-6.3h2v9.5h-2.1l-3.9-6.4v6.4h-2V74.7z"/>
			<path class="st2" d="M73.1,76.4h-2.8v7.7h-2.1v-7.7h-2.8v-1.8h7.8V76.4z"/>
			<path class="st2" d="M81.5,84.1h-2.2L78.5,82H75l-0.8,2.1h-2.1l3.6-9.5h2.1L81.5,84.1z M76.8,77l-1.3,3.5H78L76.8,77z"/>
			<path class="st2" d="M84.3,84.1h-2.1v-9.5h2.1V84.1z"/>
			<path class="st2" d="M86.2,74.7h2.1l3.9,6.3v-6.3h2v9.5h-2.1l-3.9-6.4v6.4h-2V74.7z"/>
			<path class="st2" d="M103.1,76.4h-5v2.1h4.6v1.6h-4.6v2.3h5.1v1.7H96v-9.5h7.1V76.4z"/>
			<path class="st2" d="M109.4,74.7c1.7,0,3.2,0.8,3.2,2.7c0,1.1-0.6,2-1.5,2.3c1,0.2,1.3,1.3,1.4,2.2c0.1,0.6,0.1,1.9,0.5,2.2h-2.2
				c-0.2-0.5-0.2-1.4-0.3-1.9c-0.1-1.3-0.5-1.8-1.9-1.8h-1.8v3.7h-2.1v-9.5H109.4z M106.8,78.9h2c1,0,1.8-0.2,1.8-1.3
				c0-1.1-0.9-1.3-1.7-1.3h-2.1V78.9z"/>
		</g>
	</g>
</g>
</svg>
