<?xml version="1.0" encoding="utf-8"?>
<!-- Generator: Adobe Illustrator 23.0.1, SVG Export Plug-In . SVG Version: 6.00 Build 0)  -->
<svg version="1.1" id="Layer_1" xmlns="http://www.w3.org/2000/svg" xmlns:xlink="http://www.w3.org/1999/xlink" x="0px" y="0px"
	 viewBox="0 0 90 90" style="enable-background:new 0 0 90 90;" xml:space="preserve">
<style type="text/css">
	.st0{fill:#0B7A8C;}
	.st1{fill:#FFCD10;}
	.st2{fill:#231F20;}
	.st3{fill:#DDF0F4;}
	.st4{fill:#959595;}
	.st5{fill:#FFEF00;}
	.st6{fill:#FFFFFF;}
	.st7{fill-rule:evenodd;clip-rule:evenodd;fill:#FFFFFF;}
	.st8{fill:none;}
</style>
<g>
	<g>
		<g>
			<path class="st5" d="M88.9,46.4L46.4,88.9c-0.8,0.8-2,0.8-2.8,0L1.1,46.4c-0.8-0.8-0.8-2,0-2.8L43.6,1.1c0.8-0.8,2-0.8,2.8,0
				l42.5,42.5C89.7,44.4,89.7,45.6,88.9,46.4z"/>
		</g>
		<g>
			<path d="M45,90c-0.7,0-1.3-0.3-1.7-0.7L0.7,46.7c-1-1-1-2.5,0-3.5L43.3,0.7c0.9-0.9,2.6-0.9,3.5,0l42.5,42.5c1,1,1,2.5,0,3.5
				L46.7,89.3C46.3,89.7,45.7,90,45,90z M45,1c-0.4,0-0.8,0.2-1,0.4L1.4,43.9c-0.6,0.6-0.6,1.5,0,2.1L44,88.6c0.6,0.6,1.5,0.6,2.1,0
				L88.6,46c0.6-0.6,0.6-1.5,0-2.1L46,1.4C45.8,1.1,45.4,1,45,1z"/>
		</g>
	</g>
	<path d="M37,28.1c-2.3,0-4.2-1.9-4.2-4.2s1.9-4.2,4.2-4.2s4.2,1.9,4.2,4.2S39.3,28.1,37,28.1z M39.9,34.8l14.8-6.7H37h-2.6l-6.2,12
		L30,65.7h1.1l3.3-14.1l6.2,14.1h1.2l-2-24.8L39.9,34.8z M52.4,38.2l7.2,0.9l-1.6-6.5l-5.5-0.9V38.2z M64.8,42.3l-3.4,20.2h1v2H47.8
		v-2h1l-3.4-20.2H44v-2h22.1v2H64.8z M60.2,57.4h-0.9l-0.1,1.7h0.8L60.2,57.4z M50.2,59.2h0.9L51,57.4h-1.1L50.2,59.2z M52.2,46
		l0.1,1.5h1.8V46H52.2z M54.1,44v-1.7h-2.1L52,44H54.1z M56,55.5h1.4l0.2-2H56V55.5z M54.1,53.4h-1.4l0.1,2h1.2V53.4z M57.8,51.5
		l0.2-1.9H56v1.9H57.8z M54.1,49.5h-1.6l0.1,1.9h1.5V49.5z M50.2,46H48l0.3,1.5h2L50.2,46z M48.6,49.5l0.3,1.9h1.6l-0.1-1.9H48.6z
		 M49.3,53.4l0.3,2h1.3l-0.1-2H49.3z M53.1,59.2h1v-1.7H53L53.1,59.2z M53.2,61.2l0.1,1.4h0.7v-1.4H53.2z M56,62.6h0.8l0.1-1.4H56
		V62.6z M57.1,59.2l0.1-1.7H56v1.7H57.1z M60.5,55.5l0.3-2h-1.3l-0.2,2H60.5z M61.2,51.5l0.3-1.9h-1.7l-0.2,1.9H61.2z M61.9,47.5
		l0.3-1.5h-2l-0.1,1.5H61.9z M58.2,46H56v1.5h2L58.2,46z M58.4,44l0.1-1.7H56V44H58.4z M47.4,42.3l0.3,1.7h2.4l-0.1-1.7H47.4z
		 M50.8,62.6h0.6l-0.1-1.4h-0.7L50.8,62.6z M59.3,62.6l0.2-1.4H59l-0.1,1.4H59.3z M62.8,42.3h-2.3L60.3,44h2.2L62.8,42.3z"/>
</g>
</svg>
